<svg version="1.1" id="Layer_1" xmlns="http://www.w3.org/2000/svg" xmlns:xlink="http://www.w3.org/1999/xlink" x="0px" y="0px"
	 width="100%" viewBox="0 0 400 400" enable-background="new 0 0 400 400" xml:space="preserve">
<path fill="#CCD6DD" opacity="1.000000" stroke="none" 
	d="
M70.000000,401.000000 
	C47.007511,401.000000 24.015022,401.000000 1.016900,401.000000 
	C1.011267,267.717712 1.011267,134.435440 1.011267,1.076582 
	C134.238693,1.076582 267.477448,1.076582 400.858093,1.076582 
	C400.858093,134.333221 400.858093,267.666595 400.858093,401.000000 
	C378.255493,401.000000 355.596405,401.000000 332.481720,400.575073 
	C329.588989,379.142456 322.984070,359.476410 311.347321,341.872253 
	C281.275909,296.379944 239.207520,274.211365 184.423492,280.365967 
	C149.000824,284.345459 120.549507,302.266815 98.700424,330.267426 
	C82.486656,351.046143 72.698273,374.635651 70.000000,401.000000 
M246.869415,105.600372 
	C218.270828,80.815437 154.725708,81.004501 133.997925,136.045593 
	C125.684067,158.122482 123.366173,181.078568 126.296677,204.351227 
	C129.678604,231.208969 143.260284,246.091660 169.373932,251.338226 
	C190.941681,255.671463 212.772568,255.536972 234.360855,250.989227 
	C257.672668,246.078430 270.941528,231.388229 275.144226,208.029602 
	C277.868103,192.890396 277.018097,177.819641 274.872284,162.789841 
	C271.764069,141.019272 264.501495,121.128410 246.869415,105.600372 
z"/>
<path fill="#657786" opacity="1.000000" stroke="none" 
	d="
M70.468658,401.000000 
	C72.698273,374.635651 82.486656,351.046143 98.700424,330.267426 
	C120.549507,302.266815 149.000824,284.345459 184.423492,280.365967 
	C239.207520,274.211365 281.275909,296.379944 311.347321,341.872253 
	C322.984070,359.476410 329.588989,379.142456 332.013062,400.575073 
	C244.979111,401.000000 157.958206,401.000000 70.468658,401.000000 
z"/>
<path fill="#657786" opacity="1.000000" stroke="none" 
	d="
M247.139297,105.832954 
	C264.501495,121.128410 271.764069,141.019272 274.872284,162.789841 
	C277.018097,177.819641 277.868103,192.890396 275.144226,208.029602 
	C270.941528,231.388229 257.672668,246.078430 234.360855,250.989227 
	C212.772568,255.536972 190.941681,255.671463 169.373932,251.338226 
	C143.260284,246.091660 129.678604,231.208969 126.296677,204.351227 
	C123.366173,181.078568 125.684067,158.122482 133.997925,136.045593 
	C154.725708,81.004501 218.270828,80.815437 247.139297,105.832954 
z"/>
</svg>