/Users/saki/Downloads/account.svg<svg version="1.1" id="Layer_1" xmlns="http://www.w3.org/2000/svg" xmlns:xlink="http://www.w3.org/1999/xlink" x="0px" y="0px"
	 width="100%" viewBox="0 0 1024 1024" enable-background="new 0 0 1024 1024" xml:space="preserve">
<path fill="#64BDD4" opacity="1.000000" stroke="none" 
	d="
M288.327393,416.620239 
	C275.624237,401.160583 267.935455,383.729675 265.710327,364.320465 
	C262.602966,337.215698 270.026062,312.595917 285.653900,290.400360 
	C288.863037,285.842560 292.514313,281.596069 295.699585,277.539978 
	C298.295441,278.062683 298.823273,279.608643 299.574585,280.846008 
	C323.315918,319.945892 352.951996,353.992310 388.229309,383.013123 
	C415.698608,405.610718 445.779083,423.787354 480.234863,433.865906 
	C486.609192,435.730438 493.111877,437.152924 499.502930,438.964355 
	C503.225433,440.019409 504.308167,438.232361 504.633759,435.016907 
	C504.992615,431.472748 503.865051,428.077515 503.757446,424.596771 
	C502.835541,394.781281 509.550232,367.144806 527.362427,342.735718 
	C545.493042,317.890228 569.857666,302.471771 599.939270,296.997467 
	C645.277222,288.746857 683.332642,302.905762 714.029785,336.866089 
	C718.298340,341.588379 722.163757,342.649750 728.167297,341.630341 
	C746.356934,338.541565 764.653259,336.078308 782.915527,333.422821 
	C786.948364,332.836426 790.774414,333.663513 795.215637,335.858856 
	C792.042297,340.023010 789.210999,344.022888 786.091064,347.783234 
	C772.477783,364.190582 758.830261,380.566803 745.952515,397.568817 
	C744.106628,400.005859 743.590942,402.253632 744.197144,405.356415 
	C747.459045,422.053070 749.214417,438.961395 748.089844,455.944427 
	C745.707886,491.918365 737.356689,526.524048 722.766724,559.547119 
	C709.755615,588.996582 692.513428,615.760437 671.809875,640.406860 
	C646.820312,670.155579 617.596313,694.748962 583.540283,713.408691 
	C549.227173,732.209351 512.698181,744.582275 473.769806,749.411377 
	C435.709015,754.132751 398.175568,751.278259 361.004181,741.853455 
	C322.488464,732.087830 286.786713,716.389648 254.566818,693.019836 
	C252.213303,691.312805 249.573349,689.800964 247.469131,685.855103 
	C252.762268,685.855103 257.285461,685.772583 261.804596,685.872864 
	C270.263947,686.060608 278.719360,686.473450 287.179138,686.584106 
	C335.014252,687.209473 379.086639,674.272278 419.850769,649.555359 
	C421.465759,648.576050 423.587891,647.968994 424.319519,644.773315 
	C368.755646,643.776245 329.039642,619.482849 308.169617,565.825684 
	C328.014557,562.417236 346.356476,558.150818 363.743500,549.357300 
	C323.724182,546.139954 291.836456,530.341919 274.120178,493.051208 
	C265.562927,475.039215 262.575531,455.686859 266.094513,434.744751 
	C282.412811,438.681824 298.494263,442.498016 315.379242,441.473114 
	C305.920959,433.582275 296.377106,426.175568 288.327393,416.620239 
M633.683838,430.896637 
	C646.247742,433.848358 659.498901,428.469452 667.133789,417.318512 
	C674.529785,406.516510 674.579224,392.695068 667.259277,382.252319 
	C659.109680,370.625946 646.330994,365.571869 633.329102,368.832520 
	C620.381897,372.079468 610.181763,384.271698 609.188660,396.287292 
	C607.721313,414.040405 620.184753,427.663727 633.683838,430.896637 
M439.851166,458.461853 
	C439.589752,459.238464 439.230499,459.996796 439.081360,460.794403 
	C436.243469,475.973297 428.923767,487.367950 413.218262,491.891022 
	C411.618408,492.351776 409.564575,492.805969 408.772705,496.261292 
	C416.775299,498.978943 425.207886,501.590240 430.857880,508.891754 
	C436.376617,516.023560 437.538910,524.788147 440.840546,533.117676 
	C444.367188,524.501709 445.436890,514.946289 451.921082,507.928101 
	C458.386810,500.929962 467.722046,498.977722 476.050476,495.393433 
	C475.214081,493.447784 473.900024,493.569763 472.815033,493.314423 
	C456.215668,489.408295 446.122864,479.211792 442.769287,462.410858 
	C442.447754,460.799866 443.092529,458.466919 439.851166,458.461853 
M545.263123,608.763123 
	C546.622803,607.971130 548.587097,608.079834 549.410278,605.613525 
	C543.656799,601.135315 535.698669,600.086426 530.596680,594.187012 
	C525.600098,588.409485 524.613586,580.592896 519.921997,573.198242 
	C516.638367,581.236633 515.172729,588.438049 510.159973,594.107727 
	C505.069305,599.865540 497.198853,600.959412 491.425598,605.280457 
	C492.729279,607.971802 494.638947,608.312195 496.342346,608.812439 
	C508.449738,612.368225 514.907654,621.045654 518.133850,632.681519 
	C518.555420,634.201904 518.148560,636.452820 520.501709,636.433350 
	C522.726379,636.414978 522.625488,634.144287 523.074829,632.660034 
	C525.285278,625.359070 528.157959,618.458679 534.926514,614.157043 
	C537.993347,612.207947 541.343872,610.705383 545.263123,608.763123 
M628.928040,532.715088 
	C620.640625,528.135193 618.628113,519.306702 614.741455,511.160522 
	C611.508301,524.820862 603.325134,533.404724 590.135681,537.824829 
	C595.522644,542.021179 601.787842,543.284851 606.197327,547.605896 
	C610.841248,552.156738 611.587769,558.685303 614.675293,565.558838 
	C618.116455,558.848267 619.156921,552.429443 623.697998,547.849365 
	C628.135864,543.373474 634.512085,542.085266 640.727234,538.243774 
	C636.091736,536.102600 632.830078,534.596008 628.928040,532.715088 
M575.418457,477.549347 
	C574.606750,475.511414 573.313843,473.808014 571.786438,472.257172 
	C566.813965,467.208527 560.385315,466.396606 554.084717,470.036530 
	C548.983276,472.983673 546.050110,480.085785 547.502625,485.974152 
	C549.046753,492.234253 554.767517,496.297668 561.328064,496.858368 
	C569.499084,497.556671 578.464478,489.503815 575.418457,477.549347 
M482.943756,694.748291 
	C484.029297,693.996826 485.208679,693.350342 486.185028,692.476868 
	C492.139679,687.150085 492.619385,679.858459 487.496643,673.447388 
	C482.781219,667.546082 475.615295,666.572266 469.382050,670.985657 
	C463.164276,675.387939 461.756165,682.658936 465.825378,689.350525 
	C469.326904,695.108521 474.065735,696.760925 482.943756,694.748291 
M691.536804,493.044312 
	C694.360046,490.629791 698.538330,489.847015 700.705200,484.815216 
	C692.487305,482.471680 688.430176,475.850464 685.847961,468.745911 
	C683.915222,468.820221 683.297668,469.455048 683.049622,470.232971 
	C681.091003,476.376404 677.468933,480.860413 671.490967,483.763245 
	C668.155945,485.382690 668.584717,487.964447 672.455200,489.934174 
	C677.118042,492.307068 680.585327,495.501282 682.306641,500.544373 
	C683.471130,503.956055 685.233276,503.109131 686.789612,500.815979 
	C688.362122,498.498871 688.776917,495.495941 691.536804,493.044312 
M410.421967,708.966248 
	C413.447968,712.570374 417.260315,713.802124 421.554840,711.865540 
	C425.452942,710.107666 427.659058,706.916748 427.715942,702.419434 
	C427.772888,697.917603 425.107941,695.309143 421.449097,693.676331 
	C417.429779,691.882751 413.497986,692.464233 410.543762,695.903687 
	C407.202637,699.793457 407.341034,704.073669 410.421967,708.966248 
M559.590271,659.188904 
	C553.012329,660.601746 549.396912,664.424255 549.627197,669.722656 
	C549.780823,673.257690 554.137512,677.953979 557.958923,678.704041 
	C563.865234,679.863281 567.926575,677.110474 569.238708,671.058716 
	C570.580017,664.872314 567.503845,660.768311 559.590271,659.188904 
M630.342834,613.027466 
	C625.825500,610.286377 621.585571,611.077454 618.267700,614.807800 
	C615.978516,617.381592 614.360535,620.585083 616.598572,624.304504 
	C619.047363,628.374146 621.933411,631.609680 627.264099,630.564575 
	C631.125671,629.807556 633.609070,627.573730 634.857239,623.647034 
	C636.327881,619.020264 634.332642,616.038147 630.342834,613.027466 
M492.170685,546.667114 
	C496.572266,540.789185 494.636810,534.042236 487.998444,532.122925 
	C484.033752,530.976685 479.519775,532.850891 477.427917,536.639709 
	C475.150787,540.764282 476.350006,544.336060 479.568481,547.334229 
	C483.143738,550.664673 486.674011,550.553650 492.170685,546.667114 
M375.058502,439.850037 
	C379.817413,436.615021 381.791290,431.800262 380.034943,427.711334 
	C377.984131,422.936859 373.067352,420.269501 367.881195,421.117920 
	C362.679199,421.968903 359.152802,426.733459 360.231354,431.453735 
	C362.048340,439.405792 366.187744,441.964813 375.058502,439.850037 
M453.333099,610.424622 
	C458.755615,610.889771 462.152283,608.962280 462.863312,605.016541 
	C463.600372,600.926025 460.695587,596.535645 456.634033,595.601379 
	C453.277832,594.829407 449.305603,597.605530 448.211334,601.647766 
	C447.095001,605.771484 449.838348,607.996155 453.333099,610.424622 
M660.244385,546.730286 
	C659.044067,551.994263 661.979248,556.539062 666.720703,556.683350 
	C670.851868,556.809082 673.341675,554.437683 674.280029,550.768066 
	C675.398376,546.394653 672.389038,543.918274 669.017700,542.243347 
	C664.892212,540.193848 662.589966,543.051880 660.244385,546.730286 
M537.214600,536.109375 
	C537.885498,536.833374 538.460815,537.688660 539.243835,538.258606 
	C542.525635,540.647217 545.668457,540.577393 548.511536,537.474182 
	C551.395935,534.325867 551.085388,531.190186 548.256531,528.258850 
	C546.081604,526.005188 543.580688,524.394104 540.344849,526.297668 
	C536.774353,528.398193 535.149048,531.299011 537.214600,536.109375 
z"/>
<path fill="#64BDD4" opacity="1.000000" stroke="none" 
	d="
M527.025208,257.739044 
	C514.713013,257.662903 515.015808,257.761749 511.367767,268.937927 
	C504.923462,288.680542 491.270691,301.052002 471.277130,306.364594 
	C456.246429,310.358429 442.225037,307.647491 429.268738,299.255798 
	C427.254669,297.951294 425.870453,297.709198 424.131439,299.608154 
	C420.419586,303.661438 416.580170,307.600647 412.717712,311.512207 
	C410.544830,313.712738 410.479095,315.721497 412.657318,317.961853 
	C427.512878,333.241150 442.340057,348.548004 457.168488,363.853668 
	C458.402924,365.127869 459.844635,365.712860 461.634491,365.658936 
	C463.631500,365.598785 465.633545,365.683777 467.632874,365.729370 
	C476.044281,365.921204 482.175934,371.511383 482.257324,379.052155 
	C482.326233,385.437317 475.714630,391.574341 468.252625,392.309509 
	C456.630188,393.454651 447.272003,389.437561 439.197784,381.040680 
	C423.607849,364.827850 407.481873,349.128601 391.980042,332.834076 
	C387.468872,328.092224 382.987427,325.595428 376.390015,326.267944 
	C370.351166,326.883545 365.633972,324.110840 363.136719,318.468658 
	C359.430756,310.095551 364.743408,301.386780 374.350983,299.650665 
	C378.682617,298.867920 382.985474,299.837311 387.307312,299.704193 
	C389.416168,299.639252 391.092651,299.234528 392.593597,297.546875 
	C397.353729,292.194794 402.227570,286.941132 407.154114,281.740967 
	C409.241394,279.537750 409.531342,277.595673 408.205536,274.648621 
	C392.513428,239.767014 415.629669,200.903870 452.602814,196.498352 
	C453.589783,196.380753 454.626740,195.761841 455.523193,195.946274 
	C465.502380,197.999344 470.652435,191.289780 476.000427,184.851181 
	C478.955902,181.293060 482.504242,178.217178 485.191833,173.819061 
	C477.255066,172.457306 469.979980,174.318146 462.722900,175.526657 
	C432.410492,180.574585 402.995361,188.799072 374.827576,201.191010 
	C350.079498,212.078476 326.690277,225.287567 304.577667,240.961227 
	C282.224823,256.805176 263.006439,275.790649 245.425369,296.573730 
	C234.234039,309.803284 224.076584,323.838135 214.349396,338.179749 
	C212.112152,341.478271 209.159821,343.866425 205.065521,344.307129 
	C193.594513,345.541962 189.614822,335.904175 192.186249,327.365570 
	C194.780762,318.750336 200.910522,312.054932 206.021103,304.938568 
	C222.064545,282.598450 239.848328,261.739716 260.269104,243.194504 
	C277.464600,227.578323 296.137695,214.002014 315.943542,201.936630 
	C346.835876,183.117538 379.866333,169.121170 414.587097,159.250488 
	C435.385742,153.337692 456.661896,149.385284 478.158478,146.852173 
	C481.692627,146.435730 483.699951,145.103729 485.230774,141.728897 
	C490.537842,130.029221 499.822601,123.543030 512.737183,123.812271 
	C525.351868,124.075264 534.558655,130.310181 539.278198,142.266785 
	C540.453613,145.244568 541.880310,146.566086 545.241699,146.966537 
	C572.683899,150.235886 599.774536,155.480286 626.038879,164.118134 
	C648.509949,171.508438 670.274963,180.711731 691.053040,192.190308 
	C709.575989,202.423111 727.152527,214.082855 743.831787,227.015732 
	C757.094116,237.299240 769.219055,248.970612 780.875244,261.048553 
	C801.877075,282.810333 820.041870,306.738556 834.831177,333.169678 
	C852.901062,365.463867 865.803223,399.683929 873.333679,435.937439 
	C875.999573,448.771912 877.985107,461.703674 879.222168,474.735321 
	C879.525635,477.932098 881.317505,478.851685 883.632629,479.964386 
	C898.706543,487.209564 906.023010,499.758087 906.146423,515.964600 
	C906.269714,532.159546 898.617432,544.289001 883.547668,551.048950 
	C880.478638,552.425659 878.609253,554.057312 878.353271,557.528259 
	C877.105164,574.449524 874.072144,591.100159 870.032166,607.542786 
	C864.427612,630.353088 856.766541,652.502991 846.848450,673.797729 
	C834.487549,700.337219 818.755432,724.770874 799.691284,747.017761 
	C798.078369,748.900024 796.217163,750.656921 794.198975,752.088135 
	C788.136108,756.387878 781.136047,756.024780 776.901917,751.409363 
	C772.512146,746.624390 772.538635,739.159119 777.053040,733.545166 
	C780.703491,729.005554 784.558350,724.627014 788.125122,720.023987 
	C805.678101,697.370850 819.546204,672.596558 830.618713,646.195984 
	C841.746826,619.662964 848.857239,592.088989 852.434021,563.575989 
	C852.785767,560.771729 852.715088,557.911743 853.116943,555.117371 
	C853.434448,552.909729 852.141724,552.149170 850.562012,551.428162 
	C841.360107,547.228516 834.676941,540.581116 831.049805,531.072510 
	C830.243286,528.958252 828.868958,528.423645 826.827148,528.439331 
	C813.664490,528.540405 800.498230,528.436829 787.340332,528.727783 
	C782.496277,528.834961 777.684937,528.956238 772.878296,528.367554 
	C766.660339,527.606201 761.709534,522.122803 761.816284,516.191650 
	C761.936584,509.509613 766.412292,503.858765 772.981995,503.666199 
	C790.414307,503.155426 807.862671,503.065491 825.303894,503.107086 
	C828.185242,503.113953 829.609558,502.238403 830.649048,499.851379 
	C834.531616,490.935394 840.764343,484.188904 849.724731,480.337341 
	C854.209412,478.409607 853.258667,475.270874 852.936035,471.679230 
	C849.853333,437.361938 840.608459,404.686981 826.444275,373.409882 
	C805.339844,326.807159 774.648926,287.473938 735.686096,254.385117 
	C711.252319,233.634995 684.372437,216.843094 655.332031,203.518600 
	C644.003479,198.320786 632.147217,194.271179 620.509338,189.755295 
	C619.813721,189.485367 618.922119,189.720306 618.060364,189.720306 
	C617.403381,191.994263 619.044434,193.267349 619.963440,194.668869 
	C624.314819,201.304916 626.000000,208.718536 626.139404,216.459778 
	C626.340454,227.620651 626.229553,238.788513 626.139099,249.952499 
	C626.106689,253.951797 625.735535,257.924255 623.309448,261.392731 
	C620.524170,265.374725 616.617249,266.945190 612.013733,266.190308 
	C607.530762,265.455170 604.070923,263.208160 602.494568,258.462097 
	C600.159912,251.433121 601.464844,244.301697 601.389954,237.204254 
	C601.312866,229.901474 602.197937,222.593750 600.893738,215.297134 
	C599.441895,207.174667 594.524170,201.477539 587.683167,200.412231 
	C578.695557,199.012680 570.017151,203.326782 566.320862,210.838608 
	C564.194641,215.159729 563.573975,219.892960 563.538086,224.439056 
	C563.385437,243.772278 544.612366,258.275238 528.851440,257.518433 
	C528.362671,257.494965 527.864929,257.656372 527.025208,257.739044 
M440.798035,227.266876 
	C429.228302,236.265549 425.288513,250.031296 430.621674,262.823334 
	C436.324860,276.502899 450.548737,284.194733 465.141357,281.490448 
	C478.791565,278.960785 489.755585,265.720001 489.285461,251.164001 
	C488.903259,239.329147 483.132843,230.125534 472.522125,224.594635 
	C461.823792,219.018036 451.331085,220.013474 440.798035,227.266876 
M530.892578,230.729889 
	C537.739380,228.055557 539.156189,222.145905 539.601685,215.798798 
	C540.738770,199.600769 548.722595,188.070435 563.058594,180.695480 
	C564.682617,179.860001 566.845215,179.596985 568.010620,177.186020 
	C558.150269,174.023254 548.229431,173.385895 538.367065,172.436447 
	C536.261902,172.233795 535.065247,173.823120 533.870789,175.187927 
	C529.500122,180.182175 523.681152,183.678711 517.487244,183.791885 
	C510.356628,183.922134 506.714752,187.975418 502.694885,192.329529 
	C499.649139,195.628479 496.801392,199.117111 493.654297,202.313309 
	C491.263428,204.741516 491.050385,206.549423 493.969727,208.738647 
	C500.888306,213.926804 505.955902,220.697189 509.772980,228.391617 
	C510.764893,230.391144 511.954041,231.627121 514.258362,231.658661 
	C519.567688,231.731293 524.886780,232.113388 530.892578,230.729889 
M869.444946,498.925781 
	C860.475220,497.784943 851.866760,503.975830 850.466309,512.574463 
	C849.099365,520.967346 855.333130,529.946228 863.633850,531.540588 
	C873.054443,533.350037 881.931335,527.666626 883.568420,518.777527 
	C885.232117,509.744354 879.472961,501.359222 869.444946,498.925781 
M513.091248,162.614395 
	C519.197083,160.646027 521.841003,156.812897 520.641541,151.667999 
	C519.703918,147.646133 514.929688,144.337204 510.769531,144.825897 
	C506.514130,145.325775 502.282593,150.058197 502.437958,154.143738 
	C502.619995,158.931778 506.482300,162.256561 513.091248,162.614395 
z"/>
<path fill="#64BDD4" opacity="1.000000" stroke="none" 
	d="
M628.669678,747.671448 
	C633.132324,743.160095 637.095825,738.615723 641.589844,734.676514 
	C649.298645,727.919312 658.689636,725.127808 668.771545,724.973755 
	C684.093384,724.739502 699.420654,724.880249 714.745117,724.784241 
	C722.207153,724.737427 728.554016,722.544312 731.872009,715.095215 
	C735.169373,707.692078 733.780762,700.892517 728.291138,695.318542 
	C718.477600,685.353882 708.300049,675.747375 698.257935,666.008423 
	C696.943420,664.733643 695.497681,663.594971 694.168335,662.334595 
	C688.199280,656.674744 687.423035,649.680298 692.128601,644.200195 
	C696.445679,639.172607 704.905945,638.478455 710.712524,643.152527 
	C715.112183,646.693970 719.098145,650.762085 723.161194,654.706055 
	C730.931641,662.248718 738.837646,669.667969 746.306396,677.501648 
	C760.652588,692.548950 762.748474,714.388489 751.362000,731.769409 
	C742.510925,745.280212 728.857056,749.871033 713.499939,750.216797 
	C700.843567,750.501770 688.156006,750.722839 675.519592,750.149658 
	C665.273865,749.685059 657.638123,753.557556 650.901062,760.866943 
	C636.561462,776.424500 621.971802,791.752563 607.412598,807.106384 
	C601.909912,812.909302 596.171936,818.488464 590.624207,824.249573 
	C589.300232,825.624451 587.469910,826.715637 587.055298,829.434937 
	C595.396362,830.241394 603.618286,830.385986 611.841797,829.675964 
	C613.719482,829.513855 614.869812,827.706116 616.126831,826.390808 
	C629.014465,812.905396 642.057190,799.562378 654.698914,785.849915 
	C663.124817,776.710144 673.162903,772.000671 685.574341,772.051941 
	C701.053894,772.115906 716.522278,772.971069 732.012085,772.524170 
	C736.243958,772.402161 739.785339,771.630981 742.628845,768.182129 
	C744.410583,766.021057 746.655945,764.192505 748.882751,762.457947 
	C754.068298,758.418823 761.489258,758.767944 766.346741,763.116760 
	C770.485596,766.822021 771.514038,773.879456 768.505188,779.233093 
	C767.542358,780.946289 766.279907,782.593445 764.830444,783.915527 
	C741.197327,805.472351 716.131042,825.002930 687.451233,839.604187 
	C655.554749,855.843262 622.155212,867.696411 587.181824,875.225403 
	C573.533325,878.163574 559.827515,880.735474 545.956909,882.335999 
	C542.346008,882.752563 540.120422,883.951477 538.736755,887.797913 
	C535.048584,898.050049 522.842773,906.263794 512.385071,906.241150 
	C499.354523,906.212952 488.972595,899.304504 484.683563,887.268311 
	C483.452759,883.814148 481.917938,882.447937 478.139130,882.051758 
	C433.777954,877.401001 391.195496,866.106445 350.914825,846.782043 
	C321.966309,832.894165 295.240540,815.509583 270.707336,794.735840 
	C250.716660,777.808594 232.287918,759.337830 215.957016,738.896240 
	C196.139709,714.090698 179.598953,687.286926 167.243805,657.874878 
	C157.012512,633.518738 149.892593,608.362305 145.260727,582.445984 
	C143.950790,575.116638 142.860565,567.720520 142.620972,560.243896 
	C142.487228,556.070251 141.513000,552.950378 136.908218,550.969116 
	C123.368431,545.143433 116.423027,533.833923 115.475098,519.711121 
	C114.388649,503.524597 120.103226,489.600983 135.276413,481.862427 
	C141.342117,478.768829 142.323944,474.581360 142.721497,468.907837 
	C143.370163,459.650330 144.258804,450.363739 146.808044,441.406677 
	C150.049850,430.016205 156.296021,425.109802 168.215225,424.927216 
	C187.209869,424.636230 206.211014,424.680084 225.208939,424.737122 
	C232.748413,424.759766 237.596008,428.142151 239.586914,434.173004 
	C241.157516,438.930664 239.582443,444.475830 235.583969,447.655670 
	C232.173630,450.367767 228.115356,451.182526 223.855911,451.187408 
	C208.690628,451.204773 193.525330,451.222900 178.360046,451.221680 
	C170.218246,451.221008 170.197433,451.200775 169.165863,459.183105 
	C168.528564,464.114471 168.013428,469.061890 167.352478,473.989899 
	C166.968246,476.854767 167.848938,478.562378 170.736420,479.704834 
	C180.711670,483.651642 187.613800,490.785553 191.391403,500.833679 
	C192.185379,502.945587 193.465668,503.431488 195.576447,503.395752 
	C209.334702,503.162720 223.094757,503.004761 236.854813,502.918884 
	C245.528214,502.864777 251.231293,507.859802 251.334534,515.393799 
	C251.436584,522.841064 245.769775,528.225037 237.276962,528.373657 
	C223.452667,528.615662 209.624451,528.761414 195.798904,528.704956 
	C192.771606,528.692627 191.262894,529.777527 190.246506,532.439697 
	C186.764465,541.560120 179.732773,547.203430 171.222839,551.216125 
	C168.719467,552.396545 167.031250,553.598755 167.393799,556.743774 
	C169.484482,574.879333 172.407639,592.864319 177.342865,610.460327 
	C189.819778,654.945129 211.479370,694.458557 241.701401,729.375732 
	C257.100891,747.167664 273.512421,763.887512 291.875519,778.638367 
	C323.014893,803.652283 356.997894,823.588440 394.804382,836.880737 
	C415.715576,844.232910 437.144684,849.375732 458.917633,853.236328 
	C463.979187,854.133850 469.112732,854.617859 474.198730,855.387390 
	C478.113312,855.979675 478.728241,853.740356 478.596375,850.627319 
	C478.088745,838.642578 478.225403,826.664185 478.570221,814.671204 
	C478.780762,807.348328 480.613831,800.929260 485.655304,795.529785 
	C492.132355,788.592896 498.563599,781.613159 505.068512,774.702576 
	C506.202515,773.497925 507.553284,772.477173 508.888458,771.485291 
	C514.598816,767.243408 522.122437,767.863159 526.521973,772.892578 
	C530.778687,777.758789 530.315552,785.648254 525.284973,790.486267 
	C520.126221,795.447571 514.767456,800.200134 509.553833,805.105286 
	C505.216705,809.185791 502.971832,814.079956 503.226074,820.223999 
	C503.501434,826.878479 503.386169,833.555664 503.239410,840.218506 
	C503.162964,843.689148 504.215485,845.063721 507.926758,844.397217 
	C517.328735,842.708618 525.570801,845.761414 531.997986,852.381104 
	C535.443726,855.929993 538.804321,857.294617 543.362915,856.543640 
	C552.778870,854.992432 562.355042,854.390076 571.728760,852.075989 
	C571.127014,849.671875 569.102661,849.303711 567.642761,848.371216 
	C556.241516,841.089233 553.879272,829.243896 562.001343,818.496460 
	C569.049500,809.170105 577.720825,801.297363 585.723694,792.829407 
	C599.911011,777.817627 614.176453,762.879578 628.669678,747.671448 
M141.989120,526.494507 
	C143.000641,527.348267 143.956421,528.280762 145.033035,529.042480 
	C150.649582,533.016541 158.699905,533.127747 164.180130,529.356506 
	C169.704208,525.555115 172.771988,518.368835 171.371857,512.509827 
	C169.679428,505.427643 163.520462,499.957397 156.393433,499.126984 
	C149.586533,498.333893 144.295776,501.050171 140.681900,506.573364 
	C136.435059,513.063904 136.714249,519.676636 141.989120,526.494507 
M665.066162,813.758667 
	C673.119629,815.883789 680.912354,816.352356 687.919067,810.610474 
	C691.000854,808.084961 694.318604,805.848938 697.432068,803.359802 
	C699.178406,801.963684 701.421143,800.904114 701.956848,797.650696 
	C691.649353,797.372314 681.265564,794.989197 673.368713,804.470459 
	C670.824890,807.524658 667.902100,810.263306 665.066162,813.758667 
M501.937103,873.265381 
	C501.635864,878.318237 504.342072,882.941772 508.409454,884.323242 
	C512.261353,885.631531 517.048462,883.885132 519.298096,880.350952 
	C522.186707,875.812988 520.870300,870.256714 516.230774,867.403931 
	C510.719879,864.015564 505.808044,865.830505 501.937103,873.265381 
z"/>
<path fill="#64BDD4" opacity="1.000000" stroke="none" 
	d="
M209.752853,566.777222 
	C226.079987,549.223877 251.832794,548.610840 269.725739,560.985352 
	C290.035828,575.031555 294.304932,606.816284 279.036896,626.241821 
	C267.126038,641.396057 244.588776,648.388733 226.674515,641.260071 
	C206.116745,633.079529 192.862488,607.090149 199.443604,585.818237 
	C201.585587,578.894775 204.695267,572.517151 209.752853,566.777222 
M230.099503,585.614014 
	C224.702271,591.283081 223.492447,598.022156 226.415390,604.996094 
	C229.439468,612.211304 235.677826,616.203430 243.334793,616.235474 
	C250.593689,616.265869 256.330017,612.499023 259.558441,605.636475 
	C262.897400,598.538940 260.401123,589.397583 253.857727,584.113892 
	C248.127914,579.487244 237.763138,577.963745 230.099503,585.614014 
z"/>
<path fill="#64BDD4" opacity="1.000000" stroke="none" 
	d="
M770.595459,556.497192 
	C783.534485,547.420959 796.760071,546.281311 810.133240,554.211121 
	C822.058472,561.282288 827.929810,572.564880 826.822021,586.015808 
	C825.521973,601.800232 816.733276,612.830994 800.936218,617.194824 
	C785.648315,621.418030 769.371521,614.225769 761.523987,600.010254 
	C753.652771,585.751953 757.093628,568.797180 770.595459,556.497192 
M781.558777,577.157532 
	C778.229065,584.017578 779.300537,589.732666 784.696045,593.891113 
	C788.560303,596.869385 796.042358,596.610474 800.029663,593.360657 
	C805.696594,588.741760 805.963196,580.251770 800.609375,574.902771 
	C795.189941,569.488220 787.548340,570.167908 781.558777,577.157532 
z"/>
<path fill="#64BDD4" opacity="1.000000" stroke="none" 
	d="
M367.723755,278.672302 
	C352.961334,292.119354 333.482574,289.313477 325.165955,272.568298 
	C320.290863,262.752502 322.287354,253.175354 328.971375,245.100281 
	C335.191132,237.586075 343.817505,234.482925 353.551239,236.797653 
	C363.839539,239.244217 370.876648,245.339371 373.433167,256.114197 
	C375.445801,264.596649 373.096100,271.789093 367.723755,278.672302 
z"/>
<path fill="#64BDD4" opacity="1.000000" stroke="none" 
	d="
M738.987671,604.012207 
	C750.892151,615.413025 762.551819,626.555237 774.194519,637.715210 
	C778.446533,641.790894 781.829895,646.287537 779.704651,652.648621 
	C776.729919,661.552307 765.542603,664.945435 758.639893,658.485291 
	C743.830811,644.625610 729.360046,630.397156 714.987122,616.082397 
	C709.650635,610.767578 709.541260,605.121765 713.685181,599.973999 
	C717.804993,594.856323 724.800842,593.636536 730.796692,596.978882 
	C733.899414,598.708557 736.240662,601.323425 738.987671,604.012207 
z"/>
<path fill="#64BDD4" opacity="1.000000" stroke="none" 
	d="
M438.438232,783.961487 
	C456.505585,781.544373 465.428833,791.411499 468.388245,802.168823 
	C470.909973,811.335388 468.246887,819.406494 461.616394,825.798096 
	C453.728394,833.401794 444.243561,835.143738 434.094788,830.756592 
	C425.067322,826.854004 420.450439,819.766663 419.591644,809.876343 
	C418.680145,799.379578 426.757324,786.326904 438.438232,783.961487 
z"/>
<path fill="#64BDD4" opacity="1.000000" stroke="none" 
	d="
M783.865967,479.263550 
	C774.984253,472.057465 772.351990,463.273407 775.850464,453.321594 
	C778.970032,444.447937 786.595520,438.835083 795.775452,438.655762 
	C807.713928,438.422546 816.995605,446.728577 818.298218,458.811035 
	C819.422791,469.241760 811.537842,479.815002 800.859131,482.345428 
	C794.850708,483.769226 789.385864,482.432281 783.865967,479.263550 
z"/>
<path fill="#64BDD4" opacity="1.000000" stroke="none" 
	d="
M699.257263,239.893524 
	C704.604492,247.817810 705.278076,255.774521 700.167175,263.504120 
	C695.166687,271.066833 687.669128,274.592163 678.694336,273.156189 
	C670.003357,271.765564 663.972351,266.549255 661.369080,257.904205 
	C658.824646,249.454422 662.486816,239.201340 669.605469,234.536285 
	C678.187073,228.912491 687.819397,229.575119 695.899048,236.401199 
	C697.033630,237.359756 697.990234,238.528992 699.257263,239.893524 
z"/>
<path fill="#64BDD4" opacity="1.000000" stroke="none" 
	d="
M189.311111,387.289032 
	C187.017548,391.943329 185.131638,396.405792 182.710968,400.556396 
	C179.386261,406.257141 173.059509,408.159454 167.166672,405.670471 
	C161.812988,403.409210 158.402008,396.528198 160.594681,390.680237 
	C164.674301,379.799713 169.268707,369.085632 175.302795,359.119415 
	C178.835785,353.284149 184.891113,352.016602 191.430054,355.048981 
	C196.566925,357.431122 199.243118,364.033813 197.492706,369.825836 
	C195.648331,375.928833 192.353668,381.342499 189.311111,387.289032 
z"/>
<path fill="#64BDD4" opacity="1.000000" stroke="none" 
	d="
M389.825195,814.134338 
	C380.831757,813.225464 375.601837,808.671265 374.634003,801.287231 
	C373.654999,793.817932 377.286194,787.346680 383.854980,784.854553 
	C391.037781,782.129456 399.477539,785.289246 402.559326,791.857422 
	C406.234711,799.690735 403.654785,807.951660 396.308105,811.995178 
	C394.394562,813.048340 392.405060,813.818054 389.825195,814.134338 
z"/>
<path fill="#64BDD4" opacity="1.000000" stroke="none" 
	d="
M685.878296,709.226562 
	C677.246460,714.019409 668.132629,709.105530 665.958435,702.835144 
	C663.619141,696.088684 665.894531,688.772888 672.046448,685.180969 
	C677.956604,681.730164 685.892517,683.315613 689.916931,688.751038 
	C694.200867,694.536926 693.686462,702.224670 688.626709,707.284180 
	C687.932556,707.978210 687.032288,708.466125 685.878296,709.226562 
z"/>
<path fill="#64BDD4" opacity="1.000000" stroke="none" 
	d="
M813.333496,417.301636 
	C807.749878,421.751312 802.036316,422.951965 796.023743,419.314087 
	C791.186707,416.387451 788.808838,410.584839 789.925293,405.140869 
	C791.019653,399.804474 794.151306,396.155518 799.479614,394.775055 
	C805.006897,393.342987 810.254456,394.180237 813.886292,398.845459 
	C817.297424,403.227264 818.719543,408.277100 815.662476,413.636932 
	C815.007080,414.785919 814.291382,415.900574 813.333496,417.301636 
z"/>
<path fill="#64BDD4" opacity="1.000000" stroke="none" 
	d="
M582.007935,768.634277 
	C582.809998,774.717957 581.385498,779.661499 576.437439,782.906433 
	C569.719727,787.312012 560.935852,785.177734 557.546448,778.562805 
	C553.789307,771.229980 556.373840,762.551636 563.234924,759.462524 
	C571.500061,755.741150 578.548584,759.056946 582.007935,768.634277 
z"/>
<path fill="#64BDD4" opacity="1.000000" stroke="none" 
	d="
M716.601624,293.033630 
	C713.603027,284.055328 715.616455,277.469818 722.056335,274.244415 
	C728.183716,271.175507 735.570129,272.968475 738.854248,278.321930 
	C742.850220,284.835754 741.810913,292.309692 736.291260,296.753510 
	C731.023621,300.994415 722.981628,300.395569 718.267578,295.383240 
	C717.702209,294.782043 717.276733,294.049286 716.601624,293.033630 
z"/>
<path fill="#64BDD4" opacity="1.000000" stroke="none" 
	d="
M229.457352,402.861816 
	C222.200180,404.889282 217.457367,403.591187 214.015198,398.894989 
	C210.529587,394.139526 210.209259,388.322144 213.170914,383.561890 
	C216.201294,378.691071 221.429413,376.548157 227.381165,377.737305 
	C232.871323,378.834229 236.611038,382.969116 237.661469,389.103851 
	C238.579636,394.466095 235.892670,399.124207 229.457352,402.861816 
z"/>
<path fill="#64BDD4" opacity="1.000000" stroke="none" 
	d="
M325.402710,646.890442 
	C321.670166,654.430542 315.462097,657.018250 308.975433,654.076233 
	C302.696960,651.228699 299.771423,643.793213 302.349396,637.235840 
	C304.599243,631.513062 311.564575,628.281250 317.599884,630.159973 
	C324.503937,632.309082 327.526794,638.543823 325.402710,646.890442 
z"/>
<path fill="#64BDD4" opacity="1.000000" stroke="none" 
	d="
M323.884583,766.259766 
	C335.188782,763.531433 339.812988,771.504089 337.968109,778.474487 
	C336.611938,783.598267 332.828918,786.379639 327.745270,786.316589 
	C322.979706,786.257507 319.574097,783.470581 318.117615,778.438049 
	C316.686340,773.492432 318.525024,769.405457 323.884583,766.259766 
z"/>
<path fill="#64BDD4" opacity="1.000000" stroke="none" 
	d="
M472.003967,324.519989 
	C477.177704,328.220856 478.964508,332.818115 477.151855,336.944519 
	C475.274841,341.217346 470.596161,343.814941 466.295929,342.971710 
	C461.045166,341.942078 457.364410,337.226837 457.995941,332.338898 
	C458.723907,326.704437 462.874695,323.351654 468.745514,323.731750 
	C469.715607,323.794586 470.666748,324.149719 472.003967,324.519989 
z"/>
<path fill="#64BDD4" opacity="1.000000" stroke="none" 
	d="
M375.421417,230.289673 
	C372.039520,223.123245 373.639557,217.875610 379.562012,215.545639 
	C384.709412,213.520599 390.123016,216.140915 391.860107,221.498260 
	C393.173279,225.548111 391.374237,230.568161 387.770660,232.909378 
	C383.986664,235.367828 380.178162,234.641556 375.421417,230.289673 
z"/>
<path fill="#64BDD4" opacity="1.000000" stroke="none" 
	d="
M778.884216,687.005920 
	C775.745178,682.334839 776.210632,678.179626 779.488892,674.300781 
	C782.097595,671.214172 785.632996,671.005188 789.105896,672.098328 
	C792.916443,673.297607 795.006348,676.098755 795.362976,680.253784 
	C795.769775,684.993774 793.126587,688.201660 789.471436,689.795288 
	C785.980286,691.317383 781.881042,691.026978 778.884216,687.005920 
z"/>
<path fill="#64BDD4" opacity="1.000000" stroke="none" 
	d="
M816.997925,648.619751 
	C812.651123,653.542114 808.881897,654.487915 804.704956,652.011169 
	C801.125793,649.888855 799.644226,645.127136 801.213257,640.628052 
	C802.736450,636.260803 806.004272,634.425537 810.441345,634.741821 
	C816.674805,635.186157 819.448303,640.858582 816.997925,648.619751 
z"/>
<path fill="#64BDD4" opacity="1.000000" stroke="none" 
	d="
M218.025131,474.881073 
	C221.784897,477.933258 223.124146,481.413208 221.239166,485.648254 
	C219.599838,489.331360 216.562820,491.398102 212.582230,491.167908 
	C208.415085,490.926941 205.479385,488.550751 204.320847,484.402679 
	C203.331879,480.861755 204.419510,477.696259 207.080368,475.417572 
	C210.283356,472.674652 213.996582,472.551361 218.025131,474.881073 
z"/>
<path fill="#64BDD4" opacity="1.000000" stroke="none" 
	d="
M573.730347,272.243591 
	C568.538818,272.414734 565.390259,270.154663 564.110779,265.592865 
	C563.058655,261.841736 564.283630,258.540222 567.480774,256.474030 
	C570.898254,254.265488 574.610535,253.909805 578.112915,256.683502 
	C583.807495,261.193390 581.846497,268.870117 573.730347,272.243591 
z"/>
<path fill="#64BDD4" opacity="1.000000" stroke="none" 
	d="
M648.036011,232.200653 
	C641.976624,230.472992 639.209290,227.115387 639.740051,222.398102 
	C640.223755,218.099258 642.616577,215.410400 646.947021,214.729507 
	C652.059875,213.925583 655.829468,216.532196 656.898621,221.459152 
	C657.960571,226.352921 654.457520,230.801575 648.036011,232.200653 
z"/>
<path fill="#64BDD4" opacity="1.000000" stroke="none" 
	d="
M231.039215,346.645630 
	C237.252609,347.446991 239.681671,350.122528 239.314682,355.274475 
	C238.992340,359.799927 235.693588,362.936462 231.201569,362.988678 
	C227.258682,363.034485 223.423584,359.615479 223.039139,355.711792 
	C222.565170,350.899384 225.319382,347.605377 231.039215,346.645630 
z"/>
<path fill="#64BDD4" opacity="1.000000" stroke="none" 
	d="
M190.782959,571.507324 
	C186.372238,575.823364 182.848862,576.257324 179.299652,573.225647 
	C176.336197,570.694336 175.705978,565.674072 177.938354,562.382080 
	C180.281265,558.927124 184.776062,557.890137 188.429840,559.961487 
	C192.235596,562.119019 193.108231,565.915222 190.782959,571.507324 
z"/>
<path fill="#64BDD4" opacity="1.000000" stroke="none" 
	d="
M516.113220,298.563843 
	C513.749817,292.522583 515.612061,287.680878 520.436768,286.834473 
	C524.197693,286.174683 527.403015,287.258820 529.116150,290.929718 
	C530.843079,294.630249 529.689819,297.843597 526.483887,300.035706 
	C522.938721,302.459808 519.363831,302.369171 516.113220,298.563843 
z"/>
<path fill="#64BDD4" opacity="1.000000" stroke="none" 
	d="
M350.771973,786.804199 
	C354.556946,783.625000 357.878418,784.269897 360.610565,787.450256 
	C363.076721,790.320923 363.034027,793.614136 360.338806,796.371765 
	C357.689697,799.082397 354.297211,799.456177 351.393829,797.097656 
	C347.954285,794.303467 347.638611,790.711304 350.771973,786.804199 
z"/>
<path fill="#64BDD4" opacity="1.000000" stroke="none" 
	d="
M539.536255,800.995972 
	C546.547729,800.418335 550.265503,803.687561 548.619873,808.555420 
	C547.651550,811.419739 545.725037,813.560852 542.618896,813.776855 
	C539.745605,813.976624 537.553772,812.425110 536.415039,809.710022 
	C534.908813,806.118835 535.955200,803.275757 539.536255,800.995972 
z"/>
<path fill="#64BDD4" opacity="1.000000" stroke="none" 
	d="
M779.133484,702.117798 
	C782.401794,704.479431 783.062378,707.392090 781.842163,710.655457 
	C780.920715,713.119568 779.049866,714.874939 776.302551,714.983826 
	C773.583008,715.091614 771.516724,713.570007 770.357056,711.209412 
	C769.217346,708.889343 769.113220,706.336182 770.767090,704.174072 
	C772.821472,701.488464 775.697510,701.129211 779.133484,702.117798 
z"/>
<path fill="#64BDD4" opacity="1.000000" stroke="none" 
	d="
M550.861572,278.470520 
	C549.046387,282.175476 546.422729,284.058289 542.695801,283.005554 
	C539.798218,282.187073 537.801758,279.916412 537.884521,276.783295 
	C537.984680,272.988647 539.979126,270.659210 544.112000,270.629364 
	C548.882568,270.594940 550.783142,272.600586 550.861572,278.470520 
z"/>
<path fill="#64BDD4" opacity="1.000000" stroke="none" 
	d="
M600.692017,753.290161 
	C598.659302,757.247986 595.688110,758.365356 592.225586,756.573669 
	C589.098999,754.955933 588.004883,751.887329 589.130310,748.494812 
	C590.345215,744.832886 593.376526,743.873108 596.757996,744.759766 
	C600.954407,745.860229 601.848022,749.023315 600.692017,753.290161 
z"/>
<path fill="#64BDD4" opacity="1.000000" stroke="none" 
	d="
M579.883911,219.893829 
	C583.910034,220.631058 585.794556,223.005280 585.759949,226.519409 
	C585.733948,229.162918 584.114563,231.261169 581.516968,232.047607 
	C578.889709,232.843018 576.625549,231.777496 574.947693,229.690155 
	C571.904175,225.903992 573.926758,221.574524 579.883911,219.893829 
z"/>
<path fill="#64BDD4" opacity="1.000000" stroke="none" 
	d="
M841.960876,459.983826 
	C844.396301,463.157257 844.577087,466.081909 841.911377,468.677856 
	C839.985718,470.553009 837.502136,471.009705 835.079590,469.670654 
	C832.336792,468.154663 831.287537,465.628937 831.798279,462.559662 
	C832.566284,457.943970 836.833130,456.733490 841.960876,459.983826 
z"/>
<path fill="#64BDD4" opacity="1.000000" stroke="none" 
	d="
M287.322632,744.873291 
	C289.506927,747.559570 290.124359,750.228271 288.438385,752.922302 
	C286.935822,755.323303 284.414429,755.672913 281.839722,755.197327 
	C279.281311,754.724792 277.999329,752.846497 277.238220,750.510498 
	C276.449493,748.089661 277.543793,746.294617 279.249512,744.833313 
	C281.729187,742.709045 284.382263,743.008789 287.322632,744.873291 
z"/>
<path fill="#64BDD4" opacity="1.000000" stroke="none" 
	d="
M836.237061,437.745300 
	C834.023376,442.850952 831.422241,444.149933 827.955872,442.274963 
	C824.696777,440.512146 823.646790,436.542023 825.597168,433.356781 
	C827.387390,430.433014 831.369934,429.844208 834.208374,432.066345 
	C835.938232,433.420654 836.464355,435.230530 836.237061,437.745300 
z"/>
<path fill="#64BDD4" opacity="1.000000" stroke="none" 
	d="
M488.107727,324.550171 
	C485.625885,318.713409 487.764069,314.420349 492.584320,314.854767 
	C495.235016,315.093597 497.309753,316.370331 498.070679,319.090302 
	C498.757111,321.543945 498.058807,323.672455 496.043304,325.253540 
	C493.398621,327.328217 490.843719,326.721375 488.107727,324.550171 
z"/>
<path fill="#64BDD4" opacity="1.000000" stroke="none" 
	d="
M195.213013,404.045441 
	C197.470947,404.024994 199.335175,404.370209 200.590683,405.788818 
	C202.870453,408.364838 203.024628,411.194153 200.667755,413.824097 
	C198.258102,416.512909 195.464996,416.507050 192.749603,414.315125 
	C189.956772,412.060608 190.061050,409.214905 191.605270,406.304291 
	C192.258499,405.073059 193.549347,404.563080 195.213013,404.045441 
z"/>
<path fill="#64BDD4" opacity="1.000000" stroke="none" 
	d="
M278.410095,653.213989 
	C277.182098,649.735046 278.266785,647.383972 280.932831,645.667847 
	C283.003418,644.335144 285.080536,644.641418 286.933014,646.052490 
	C288.947540,647.586914 289.627289,649.780762 289.210754,652.231995 
	C288.816772,654.550415 287.314423,656.204529 285.158691,656.833923 
	C282.142456,657.714539 280.198425,655.844971 278.410095,653.213989 
z"/>
<path fill="#64BDD4" opacity="1.000000" stroke="none" 
	d="
M814.952393,375.943665 
	C817.635010,379.286041 817.183411,382.261902 814.163025,384.376617 
	C811.410339,386.303864 808.404541,385.702209 806.071350,383.252869 
	C803.831116,380.901062 804.362427,378.231354 806.208557,376.042389 
	C808.748779,373.030487 811.759216,373.816925 814.952393,375.943665 
z"/>
<path fill="#64BDD4" opacity="1.000000" stroke="none" 
	d="
M215.594376,656.905273 
	C219.036469,658.512085 219.832153,661.091980 219.091248,664.123230 
	C218.592316,666.164429 217.058594,667.613892 214.999298,668.117554 
	C212.468460,668.736450 210.439575,667.590210 208.870148,665.672119 
	C207.332382,663.792603 207.380997,661.690613 208.391144,659.587585 
	C209.807739,656.638245 212.377472,656.405884 215.594376,656.905273 
z"/>
<path fill="#64BDD4" opacity="1.000000" stroke="none" 
	d="
M368.808685,436.040558 
	C366.445343,434.600403 363.868042,433.656189 364.726898,430.373474 
	C365.653107,426.833313 367.996552,425.027924 371.591370,425.393768 
	C374.370728,425.676697 375.513550,427.959564 375.327393,430.382080 
	C375.052185,433.962708 373.546387,436.770447 368.808685,436.040558 
z"/>
<path fill="#64BDD4" opacity="1.000000" stroke="none" 
	d="
M518.674194,199.134552 
	C521.697205,203.582230 521.330811,206.948730 517.929688,209.080368 
	C515.049866,210.885269 511.509491,209.637619 509.647675,206.300629 
	C508.179657,203.669388 509.090759,201.415939 510.780823,199.491898 
	C512.994934,196.971329 515.681763,197.202225 518.674194,199.134552 
z"/>
</svg>